<mxfile host="app.diagrams.net" agent="Mozilla/5.0 (Windows NT 10.0; Win64; x64) AppleWebKit/537.36 (KHTML, like Gecko) Chrome/135.0.0.0 Safari/537.36" version="26.2.10">
  <diagram name="Page-1" id="tw2M0WltdkzduRl6uEO-">
    <mxGraphModel dx="1428" dy="743" grid="1" gridSize="10" guides="1" tooltips="1" connect="1" arrows="1" fold="1" page="1" pageScale="1" pageWidth="850" pageHeight="1100" math="0" shadow="0">
      <root>
        <mxCell id="0" />
        <mxCell id="1" parent="0" />
        <mxCell id="GrHfanT2AVH04zSk61Xf-1" value="" style="rounded=0;whiteSpace=wrap;html=1;strokeWidth=2;" parent="1" vertex="1">
          <mxGeometry x="217" y="90" width="433" height="550" as="geometry" />
        </mxCell>
        <mxCell id="GrHfanT2AVH04zSk61Xf-2" value="&lt;font face=&quot;Verdana&quot; style=&quot;font-size: 14px;&quot;&gt;&lt;b&gt;Online Appointment System&lt;/b&gt;&lt;/font&gt;" style="text;html=1;align=center;verticalAlign=middle;whiteSpace=wrap;rounded=0;" parent="1" vertex="1">
          <mxGeometry x="227" y="100" width="403" height="30" as="geometry" />
        </mxCell>
        <mxCell id="GrHfanT2AVH04zSk61Xf-3" value="&lt;font face=&quot;Verdana&quot; style=&quot;font-size: 14px;&quot;&gt;Schedule&lt;/font&gt;" style="ellipse;whiteSpace=wrap;html=1;" parent="1" vertex="1">
          <mxGeometry x="242" y="140" width="158" height="50" as="geometry" />
        </mxCell>
        <mxCell id="GrHfanT2AVH04zSk61Xf-5" value="&lt;font face=&quot;Verdana&quot; style=&quot;font-size: 14px;&quot;&gt;Create Schedule&lt;/font&gt;" style="ellipse;whiteSpace=wrap;html=1;" parent="1" vertex="1">
          <mxGeometry x="242" y="500" width="158" height="50" as="geometry" />
        </mxCell>
        <mxCell id="GrHfanT2AVH04zSk61Xf-8" value="&lt;font face=&quot;Verdana&quot; style=&quot;font-size: 14px;&quot;&gt;Finance Reports&lt;/font&gt;" style="ellipse;whiteSpace=wrap;html=1;" parent="1" vertex="1">
          <mxGeometry x="242" y="566" width="158" height="50" as="geometry" />
        </mxCell>
        <mxCell id="GrHfanT2AVH04zSk61Xf-10" value="&lt;font style=&quot;font-size: 14px;&quot; face=&quot;Verdana&quot;&gt;Patient&lt;/font&gt;" style="shape=umlActor;verticalLabelPosition=bottom;verticalAlign=top;html=1;outlineConnect=0;" parent="1" vertex="1">
          <mxGeometry x="106" y="190" width="30" height="60" as="geometry" />
        </mxCell>
        <mxCell id="GrHfanT2AVH04zSk61Xf-11" value="" style="endArrow=classic;html=1;rounded=0;entryX=0;entryY=0.5;entryDx=0;entryDy=0;" parent="1" target="GrHfanT2AVH04zSk61Xf-3" edge="1">
          <mxGeometry width="50" height="50" relative="1" as="geometry">
            <mxPoint x="140" y="230" as="sourcePoint" />
            <mxPoint x="177" y="130" as="targetPoint" />
          </mxGeometry>
        </mxCell>
        <mxCell id="GrHfanT2AVH04zSk61Xf-12" value="" style="endArrow=classic;html=1;rounded=0;entryX=0;entryY=0.5;entryDx=0;entryDy=0;" parent="1" target="FB4Bb7uTK-6Flp1YQ7hf-3" edge="1">
          <mxGeometry width="50" height="50" relative="1" as="geometry">
            <mxPoint x="140" y="230" as="sourcePoint" />
            <mxPoint x="282" y="175" as="targetPoint" />
          </mxGeometry>
        </mxCell>
        <mxCell id="GrHfanT2AVH04zSk61Xf-13" value="&lt;font style=&quot;font-size: 14px;&quot; face=&quot;Verdana&quot;&gt;Staff&lt;/font&gt;" style="shape=umlActor;verticalLabelPosition=bottom;verticalAlign=top;html=1;outlineConnect=0;" parent="1" vertex="1">
          <mxGeometry x="106" y="470" width="30" height="60" as="geometry" />
        </mxCell>
        <mxCell id="GrHfanT2AVH04zSk61Xf-14" value="" style="endArrow=classic;html=1;rounded=0;entryX=0;entryY=0.5;entryDx=0;entryDy=0;" parent="1" target="FB4Bb7uTK-6Flp1YQ7hf-4" edge="1">
          <mxGeometry width="50" height="50" relative="1" as="geometry">
            <mxPoint x="140" y="230" as="sourcePoint" />
            <mxPoint x="240" y="235" as="targetPoint" />
          </mxGeometry>
        </mxCell>
        <mxCell id="GrHfanT2AVH04zSk61Xf-16" value="&lt;font style=&quot;font-size: 14px;&quot; face=&quot;Verdana&quot;&gt;Doctor&lt;/font&gt;" style="shape=umlActor;verticalLabelPosition=bottom;verticalAlign=top;html=1;outlineConnect=0;" parent="1" vertex="1">
          <mxGeometry x="106" y="360" width="30" height="60" as="geometry" />
        </mxCell>
        <mxCell id="GrHfanT2AVH04zSk61Xf-17" value="" style="endArrow=classic;html=1;rounded=0;entryX=0;entryY=0.5;entryDx=0;entryDy=0;" parent="1" target="FB4Bb7uTK-6Flp1YQ7hf-14" edge="1">
          <mxGeometry width="50" height="50" relative="1" as="geometry">
            <mxPoint x="140" y="390" as="sourcePoint" />
            <mxPoint x="93" y="325" as="targetPoint" />
          </mxGeometry>
        </mxCell>
        <mxCell id="GrHfanT2AVH04zSk61Xf-19" value="&lt;font style=&quot;font-size: 14px;&quot; face=&quot;Verdana&quot;&gt;Finance&lt;/font&gt;" style="shape=umlActor;verticalLabelPosition=bottom;verticalAlign=top;html=1;outlineConnect=0;" parent="1" vertex="1">
          <mxGeometry x="106" y="566" width="30" height="60" as="geometry" />
        </mxCell>
        <mxCell id="GrHfanT2AVH04zSk61Xf-20" value="" style="endArrow=classic;html=1;rounded=0;entryX=0;entryY=0.5;entryDx=0;entryDy=0;" parent="1" target="GrHfanT2AVH04zSk61Xf-8" edge="1">
          <mxGeometry width="50" height="50" relative="1" as="geometry">
            <mxPoint x="140" y="591" as="sourcePoint" />
            <mxPoint x="240" y="620" as="targetPoint" />
          </mxGeometry>
        </mxCell>
        <mxCell id="GrHfanT2AVH04zSk61Xf-21" value="&lt;font style=&quot;font-size: 14px;&quot; face=&quot;Verdana&quot;&gt;Manage User&lt;/font&gt;" style="ellipse;whiteSpace=wrap;html=1;" parent="1" vertex="1">
          <mxGeometry x="460" y="400" width="170" height="50" as="geometry" />
        </mxCell>
        <mxCell id="GrHfanT2AVH04zSk61Xf-22" value="&lt;font style=&quot;font-size: 14px;&quot; face=&quot;Verdana&quot;&gt;Manager&lt;/font&gt;" style="shape=umlActor;verticalLabelPosition=bottom;verticalAlign=top;html=1;outlineConnect=0;" parent="1" vertex="1">
          <mxGeometry x="700" y="450" width="30" height="60" as="geometry" />
        </mxCell>
        <mxCell id="GrHfanT2AVH04zSk61Xf-23" value="" style="endArrow=classic;html=1;rounded=0;entryX=1;entryY=0.5;entryDx=0;entryDy=0;" parent="1" edge="1" target="FB4Bb7uTK-6Flp1YQ7hf-15">
          <mxGeometry width="50" height="50" relative="1" as="geometry">
            <mxPoint x="690" y="480" as="sourcePoint" />
            <mxPoint x="677" y="246" as="targetPoint" />
          </mxGeometry>
        </mxCell>
        <mxCell id="FB4Bb7uTK-6Flp1YQ7hf-3" value="&lt;font face=&quot;Verdana&quot; style=&quot;font-size: 14px;&quot;&gt;Reschedule&lt;/font&gt;" style="ellipse;whiteSpace=wrap;html=1;" vertex="1" parent="1">
          <mxGeometry x="242" y="200" width="158" height="50" as="geometry" />
        </mxCell>
        <mxCell id="FB4Bb7uTK-6Flp1YQ7hf-4" value="&lt;font face=&quot;Verdana&quot; style=&quot;font-size: 14px;&quot;&gt;Cancel&lt;/font&gt;" style="ellipse;whiteSpace=wrap;html=1;" vertex="1" parent="1">
          <mxGeometry x="242" y="259" width="158" height="50" as="geometry" />
        </mxCell>
        <mxCell id="FB4Bb7uTK-6Flp1YQ7hf-5" value="&lt;font face=&quot;Verdana&quot; style=&quot;font-size: 14px;&quot;&gt;View History&lt;/font&gt;" style="ellipse;whiteSpace=wrap;html=1;" vertex="1" parent="1">
          <mxGeometry x="242" y="320" width="158" height="50" as="geometry" />
        </mxCell>
        <mxCell id="FB4Bb7uTK-6Flp1YQ7hf-9" value="&lt;font face=&quot;Verdana&quot; style=&quot;font-size: 14px;&quot;&gt;User Profile&lt;/font&gt;" style="ellipse;whiteSpace=wrap;html=1;" vertex="1" parent="1">
          <mxGeometry x="480" y="330" width="148" height="30" as="geometry" />
        </mxCell>
        <mxCell id="FB4Bb7uTK-6Flp1YQ7hf-10" value="" style="endArrow=none;dashed=1;html=1;dashPattern=1 3;strokeWidth=2;rounded=0;exitX=1;exitY=0.5;exitDx=0;exitDy=0;entryX=0;entryY=0.5;entryDx=0;entryDy=0;" edge="1" parent="1" source="FB4Bb7uTK-6Flp1YQ7hf-5" target="FB4Bb7uTK-6Flp1YQ7hf-9">
          <mxGeometry width="50" height="50" relative="1" as="geometry">
            <mxPoint x="420" y="270" as="sourcePoint" />
            <mxPoint x="470" y="220" as="targetPoint" />
          </mxGeometry>
        </mxCell>
        <mxCell id="FB4Bb7uTK-6Flp1YQ7hf-11" value="&lt;font face=&quot;Verdana&quot; style=&quot;font-size: 12px;&quot;&gt;&amp;lt;&amp;lt;Include&amp;gt;&amp;gt;&lt;/font&gt;" style="edgeLabel;html=1;align=center;verticalAlign=middle;resizable=0;points=[];fontStyle=1" vertex="1" connectable="0" parent="FB4Bb7uTK-6Flp1YQ7hf-10">
          <mxGeometry x="-0.0169" y="-2" relative="1" as="geometry">
            <mxPoint x="1" y="-17" as="offset" />
          </mxGeometry>
        </mxCell>
        <mxCell id="FB4Bb7uTK-6Flp1YQ7hf-12" value="" style="endArrow=classic;html=1;rounded=0;entryX=0;entryY=0.5;entryDx=0;entryDy=0;" edge="1" parent="1" target="FB4Bb7uTK-6Flp1YQ7hf-5">
          <mxGeometry width="50" height="50" relative="1" as="geometry">
            <mxPoint x="140" y="230" as="sourcePoint" />
            <mxPoint x="252" y="245" as="targetPoint" />
          </mxGeometry>
        </mxCell>
        <mxCell id="FB4Bb7uTK-6Flp1YQ7hf-14" value="&lt;font face=&quot;Verdana&quot; style=&quot;font-size: 14px;&quot;&gt;Schedule Availability&lt;/font&gt;" style="ellipse;whiteSpace=wrap;html=1;" vertex="1" parent="1">
          <mxGeometry x="242" y="380" width="158" height="50" as="geometry" />
        </mxCell>
        <mxCell id="FB4Bb7uTK-6Flp1YQ7hf-15" value="&lt;font face=&quot;Verdana&quot; style=&quot;font-size: 14px;&quot;&gt;Appointment Report&lt;/font&gt;" style="ellipse;whiteSpace=wrap;html=1;" vertex="1" parent="1">
          <mxGeometry x="242" y="440" width="158" height="50" as="geometry" />
        </mxCell>
        <mxCell id="FB4Bb7uTK-6Flp1YQ7hf-16" value="" style="endArrow=classic;html=1;rounded=0;entryX=0;entryY=0.5;entryDx=0;entryDy=0;" edge="1" parent="1" target="FB4Bb7uTK-6Flp1YQ7hf-15">
          <mxGeometry width="50" height="50" relative="1" as="geometry">
            <mxPoint x="140" y="390" as="sourcePoint" />
            <mxPoint x="252" y="415" as="targetPoint" />
          </mxGeometry>
        </mxCell>
        <mxCell id="FB4Bb7uTK-6Flp1YQ7hf-17" value="" style="endArrow=classic;html=1;rounded=0;entryX=0;entryY=0.5;entryDx=0;entryDy=0;" edge="1" parent="1" target="GrHfanT2AVH04zSk61Xf-5">
          <mxGeometry width="50" height="50" relative="1" as="geometry">
            <mxPoint x="140" y="500" as="sourcePoint" />
            <mxPoint x="252" y="475" as="targetPoint" />
          </mxGeometry>
        </mxCell>
        <mxCell id="FB4Bb7uTK-6Flp1YQ7hf-18" value="" style="endArrow=classic;html=1;rounded=0;entryX=0;entryY=1;entryDx=0;entryDy=0;" edge="1" parent="1" target="FB4Bb7uTK-6Flp1YQ7hf-15">
          <mxGeometry width="50" height="50" relative="1" as="geometry">
            <mxPoint x="140" y="500" as="sourcePoint" />
            <mxPoint x="252" y="559" as="targetPoint" />
          </mxGeometry>
        </mxCell>
        <mxCell id="FB4Bb7uTK-6Flp1YQ7hf-19" value="" style="endArrow=classic;html=1;rounded=0;entryX=1;entryY=0.5;entryDx=0;entryDy=0;" edge="1" parent="1" target="GrHfanT2AVH04zSk61Xf-8">
          <mxGeometry width="50" height="50" relative="1" as="geometry">
            <mxPoint x="690" y="480" as="sourcePoint" />
            <mxPoint x="410" y="475" as="targetPoint" />
          </mxGeometry>
        </mxCell>
        <mxCell id="FB4Bb7uTK-6Flp1YQ7hf-20" value="" style="endArrow=classic;html=1;rounded=0;entryX=1;entryY=0.5;entryDx=0;entryDy=0;" edge="1" parent="1" target="GrHfanT2AVH04zSk61Xf-21">
          <mxGeometry width="50" height="50" relative="1" as="geometry">
            <mxPoint x="690" y="480" as="sourcePoint" />
            <mxPoint x="410" y="475" as="targetPoint" />
          </mxGeometry>
        </mxCell>
        <mxCell id="FB4Bb7uTK-6Flp1YQ7hf-22" value="&lt;font face=&quot;Verdana&quot; style=&quot;font-size: 14px;&quot;&gt;Send Notification&lt;/font&gt;" style="ellipse;whiteSpace=wrap;html=1;" vertex="1" parent="1">
          <mxGeometry x="480" y="250" width="158" height="50" as="geometry" />
        </mxCell>
        <mxCell id="FB4Bb7uTK-6Flp1YQ7hf-24" value="" style="endArrow=classic;dashed=1;html=1;rounded=0;exitX=1;exitY=1;exitDx=0;exitDy=0;dashPattern=8 8;endFill=0;" edge="1" parent="1" source="GrHfanT2AVH04zSk61Xf-3" target="FB4Bb7uTK-6Flp1YQ7hf-22">
          <mxGeometry width="50" height="50" relative="1" as="geometry">
            <mxPoint x="420" y="270" as="sourcePoint" />
            <mxPoint x="480" y="230" as="targetPoint" />
          </mxGeometry>
        </mxCell>
        <mxCell id="FB4Bb7uTK-6Flp1YQ7hf-25" value="" style="endArrow=classic;dashed=1;html=1;rounded=0;exitX=1;exitY=0.5;exitDx=0;exitDy=0;entryX=0;entryY=0.5;entryDx=0;entryDy=0;dashPattern=8 8;endFill=0;" edge="1" parent="1" source="FB4Bb7uTK-6Flp1YQ7hf-3" target="FB4Bb7uTK-6Flp1YQ7hf-22">
          <mxGeometry width="50" height="50" relative="1" as="geometry">
            <mxPoint x="410" y="175" as="sourcePoint" />
            <mxPoint x="480" y="230" as="targetPoint" />
          </mxGeometry>
        </mxCell>
        <mxCell id="FB4Bb7uTK-6Flp1YQ7hf-26" value="" style="endArrow=classic;dashed=1;html=1;rounded=0;exitX=1;exitY=0.5;exitDx=0;exitDy=0;entryX=0;entryY=1;entryDx=0;entryDy=0;dashPattern=8 8;endFill=0;" edge="1" parent="1" source="FB4Bb7uTK-6Flp1YQ7hf-4" target="FB4Bb7uTK-6Flp1YQ7hf-22">
          <mxGeometry width="50" height="50" relative="1" as="geometry">
            <mxPoint x="410" y="235" as="sourcePoint" />
            <mxPoint x="490" y="240" as="targetPoint" />
          </mxGeometry>
        </mxCell>
        <mxCell id="FB4Bb7uTK-6Flp1YQ7hf-27" value="&lt;font face=&quot;Verdana&quot; style=&quot;font-size: 12px;&quot;&gt;&amp;lt;&amp;lt;Include&amp;gt;&amp;gt;&lt;/font&gt;" style="edgeLabel;html=1;align=center;verticalAlign=middle;resizable=0;points=[];fontStyle=1;rotation=-60;" vertex="1" connectable="0" parent="1">
          <mxGeometry x="440" y="261" as="geometry">
            <mxPoint x="3.9641016151377544" y="-1.1339745962155618" as="offset" />
          </mxGeometry>
        </mxCell>
        <mxCell id="FB4Bb7uTK-6Flp1YQ7hf-31" value="&lt;font face=&quot;Verdana&quot; style=&quot;font-size: 14px;&quot;&gt;Waitlist&lt;/font&gt;" style="ellipse;whiteSpace=wrap;html=1;" vertex="1" parent="1">
          <mxGeometry x="494" y="130" width="120" height="40" as="geometry" />
        </mxCell>
        <mxCell id="FB4Bb7uTK-6Flp1YQ7hf-32" value="&lt;font face=&quot;Verdana&quot; style=&quot;font-size: 14px;&quot;&gt;Urgent&lt;/font&gt;" style="ellipse;whiteSpace=wrap;html=1;" vertex="1" parent="1">
          <mxGeometry x="494" y="180" width="120" height="40" as="geometry" />
        </mxCell>
        <mxCell id="FB4Bb7uTK-6Flp1YQ7hf-34" value="" style="endArrow=classic;html=1;rounded=0;entryX=1;entryY=0.5;entryDx=0;entryDy=0;exitX=0;exitY=0.5;exitDx=0;exitDy=0;dashed=1;dashPattern=8 8;" edge="1" parent="1" source="FB4Bb7uTK-6Flp1YQ7hf-31" target="GrHfanT2AVH04zSk61Xf-3">
          <mxGeometry width="50" height="50" relative="1" as="geometry">
            <mxPoint x="420" y="200" as="sourcePoint" />
            <mxPoint x="470" y="150" as="targetPoint" />
          </mxGeometry>
        </mxCell>
        <mxCell id="FB4Bb7uTK-6Flp1YQ7hf-37" value="&lt;span style=&quot;font-family: Verdana; font-size: 12px; font-weight: 700;&quot;&gt;&amp;lt;&amp;lt;extend&amp;gt;&amp;gt;&lt;/span&gt;" style="edgeLabel;html=1;align=center;verticalAlign=middle;resizable=0;points=[];rotation=-75;" vertex="1" connectable="0" parent="FB4Bb7uTK-6Flp1YQ7hf-34">
          <mxGeometry x="-0.3817" relative="1" as="geometry">
            <mxPoint y="15" as="offset" />
          </mxGeometry>
        </mxCell>
        <mxCell id="FB4Bb7uTK-6Flp1YQ7hf-35" value="" style="endArrow=classic;html=1;rounded=0;entryX=1;entryY=0.5;entryDx=0;entryDy=0;exitX=0;exitY=0.5;exitDx=0;exitDy=0;dashed=1;dashPattern=8 8;" edge="1" parent="1" source="FB4Bb7uTK-6Flp1YQ7hf-32" target="GrHfanT2AVH04zSk61Xf-3">
          <mxGeometry width="50" height="50" relative="1" as="geometry">
            <mxPoint x="504" y="160" as="sourcePoint" />
            <mxPoint x="410" y="175" as="targetPoint" />
          </mxGeometry>
        </mxCell>
      </root>
    </mxGraphModel>
  </diagram>
</mxfile>
